<?xml version="1.0" encoding="iso-8859-1"?>
<!-- Generator: Adobe Illustrator 19.0.0, SVG Export Plug-In . SVG Version: 6.00 Build 0)  -->
<svg version="1.1" id="Layer_1" xmlns="http://www.w3.org/2000/svg" xmlns:xlink="http://www.w3.org/1999/xlink" x="0px" y="0px"
	 viewBox="0 0 330 330" style="enable-background:new 0 0 330 330;" xml:space="preserve">
<g id="XMLID_104_">
	<path id="XMLID_105_" d="M256.819,193.18c-5.857-5.857-15.355-5.858-21.213,0.001L225,203.787l-10.606-10.607
		c-5.857-5.858-15.355-5.857-21.213-0.001c-5.858,5.858-5.858,15.355,0,21.213L203.787,225l-10.606,10.607
		c-5.858,5.858-5.858,15.355,0,21.213c2.929,2.929,6.768,4.393,10.606,4.393c3.839,0,7.678-1.464,10.607-4.394L225,246.213
		l10.606,10.607c2.929,2.929,6.768,4.394,10.607,4.394c3.838,0,7.678-1.465,10.606-4.393c5.858-5.858,5.858-15.356,0-21.213
		L246.213,225l10.606-10.607C262.678,208.535,262.678,199.038,256.819,193.18z"/>
	<polygon id="XMLID_106_" points="250,0 20,0 60,30 135,86.25 	"/>
	<path id="XMLID_107_" d="M270,130.145V22.5L240,45l-96,72c-2.666,2-5.834,3-9,3s-6.334-1-9-3L0,22.5V195c0,8.284,6.716,15,15,15
		h106.076c-0.704,4.901-1.076,9.907-1.076,15c0,57.897,47.104,105,105,105s105-47.103,105-105
		C330,183.198,305.443,147.027,270,130.145z M225,300c-41.355,0-75-33.645-75-75s33.645-75,75-75s75,33.645,75,75
		S266.355,300,225,300z"/>
</g>
<g>
</g>
<g>
</g>
<g>
</g>
<g>
</g>
<g>
</g>
<g>
</g>
<g>
</g>
<g>
</g>
<g>
</g>
<g>
</g>
<g>
</g>
<g>
</g>
<g>
</g>
<g>
</g>
<g>
</g>
</svg>
